<?xml version="1.0" encoding="UTF-8" ?>
<!DOCTYPE svg PUBLIC "-//W3C//DTD SVG 1.1//EN" "http://www.w3.org/Graphics/SVG/1.1/DTD/svg11.dtd">
<svg width="760" height="290" viewBox="140 340 760 290" version="1.1" xmlns="http://www.w3.org/2000/svg">
<g id="#010000ff">
</g>
<g id="#fdfdfeff">
<path fill="#fdfdfe" opacity="1.00" d=" M 458.40 365.64 C 503.13 353.71 550.06 352.01 595.98 356.34 C 619.64 358.83 643.11 363.00 666.10 369.11 C 692.91 376.66 719.49 385.28 745.03 396.44 C 733.71 396.58 722.37 395.81 711.06 396.68 C 708.75 396.71 706.37 397.21 704.12 396.57 C 665.35 383.16 625.02 373.75 584.05 370.78 C 555.66 368.98 527.03 369.62 498.93 374.24 C 452.34 381.67 408.05 399.77 367.18 422.97 C 365.45 424.13 362.31 425.21 363.26 427.89 C 366.32 430.94 371.02 430.16 374.93 430.66 C 398.89 432.91 422.91 435.00 446.98 435.51 C 481.78 437.46 516.65 436.10 551.47 435.66 C 530.16 440.93 508.71 445.81 486.92 448.68 C 468.99 450.78 451.04 452.97 432.99 453.69 C 407.35 455.21 381.62 454.57 356.01 452.89 C 334.69 451.85 313.50 448.96 292.19 447.91 C 272.41 446.71 252.50 447.27 232.82 449.58 C 206.64 453.14 180.48 461.18 159.06 477.09 C 147.76 485.44 137.76 495.71 130.38 507.71 C 133.15 496.61 138.07 485.98 144.61 476.59 C 154.70 462.43 169.16 451.92 184.80 444.64 C 203.74 436.09 224.24 431.60 244.82 429.34 C 268.99 426.14 293.43 426.83 317.74 426.53 C 329.15 420.32 340.38 413.75 352.12 408.15 C 386.09 390.72 421.36 375.28 458.40 365.64 Z" />
<path fill="#fdfdfe" opacity="1.00" d=" M 418.66 530.89 C 429.44 529.32 440.87 529.77 450.97 534.19 C 460.94 538.42 468.53 547.63 470.95 558.17 C 473.57 569.51 472.56 582.21 466.18 592.18 C 461.07 601.21 450.98 606.31 441.07 608.09 C 427.80 610.10 413.20 609.11 401.90 601.19 C 394.65 596.45 390.54 588.26 388.46 580.08 C 385.71 568.76 387.44 556.35 393.58 546.42 C 399.31 538.05 408.88 532.89 418.66 530.89 M 424.54 546.75 C 417.85 548.10 411.62 552.91 409.87 559.69 C 407.46 568.46 408.03 578.81 413.78 586.21 C 420.61 593.87 433.18 594.78 441.78 589.67 C 448.53 585.60 450.67 577.21 451.07 569.84 C 450.90 563.29 449.65 556.02 444.56 551.40 C 439.15 546.71 431.44 545.33 424.54 546.75 Z" />
<path fill="#fdfdfe" opacity="1.00" d=" M 176.75 531.43 C 185.90 531.32 195.04 531.40 204.18 531.48 C 211.86 550.01 219.07 568.73 226.35 587.42 C 228.84 594.15 231.82 600.69 234.01 607.53 C 226.55 607.69 219.08 607.56 211.62 607.55 C 209.60 602.57 207.77 597.52 206.21 592.39 C 195.72 592.05 185.21 592.36 174.72 592.38 C 172.83 597.49 170.69 602.51 168.73 607.60 C 161.35 607.72 153.98 607.65 146.60 607.45 C 156.61 582.10 166.89 556.85 176.75 531.43 M 190.21 547.01 C 186.88 557.25 183.10 567.34 179.41 577.45 C 186.63 577.73 193.86 577.72 201.08 577.56 C 199.02 569.69 195.77 562.21 193.19 554.52 C 192.29 551.98 191.51 549.38 190.21 547.01 Z" />
<path fill="#fdfdfe" opacity="1.00" d=" M 238.38 531.45 C 245.10 531.50 251.83 531.30 258.56 531.44 C 258.66 546.62 258.46 561.81 258.56 577.00 C 258.64 580.87 259.55 584.92 261.98 588.02 C 265.04 591.88 270.35 592.91 275.02 592.75 C 279.05 592.45 283.64 591.65 286.28 588.26 C 288.35 585.30 289.24 581.62 289.35 578.06 C 289.41 562.56 289.28 547.07 289.52 531.57 C 296.30 531.44 303.09 531.31 309.87 531.42 C 309.95 544.96 310.25 558.49 310.11 572.03 C 310.44 581.58 309.71 592.43 302.65 599.67 C 295.33 607.31 284.16 609.01 274.07 609.19 C 265.05 608.85 255.37 607.69 248.06 601.90 C 241.67 597.05 238.25 588.97 238.30 581.03 C 238.42 564.51 238.20 547.97 238.38 531.45 Z" />
<path fill="#fdfdfe" opacity="1.00" d=" M 317.67 531.54 C 339.96 531.41 362.25 531.31 384.54 531.49 C 384.57 536.82 384.55 542.15 384.41 547.48 C 376.74 547.49 369.07 547.49 361.40 547.44 C 361.28 567.47 361.46 587.50 361.34 607.53 C 354.46 607.60 347.58 607.70 340.71 607.45 C 340.60 587.47 341.12 567.48 340.65 547.51 C 333.00 547.55 325.36 547.56 317.71 547.43 C 317.63 542.13 317.61 536.83 317.67 531.54 Z" />
</g>
<g id="#fed11fff">
<path fill="#fed11f" opacity="1.00" d=" M 688.14 411.80 C 728.49 405.87 769.81 406.93 809.88 414.44 C 838.34 418.80 866.48 426.49 895.43 426.70 C 889.93 429.69 884.78 433.32 879.11 436.00 C 874.03 438.74 868.50 440.44 863.09 442.37 C 864.33 444.86 865.99 447.10 867.53 449.41 C 876.94 464.59 880.10 483.03 878.13 500.65 C 872.93 489.53 866.72 478.70 858.11 469.86 C 844.43 455.28 826.27 445.41 807.11 440.10 C 793.68 436.45 779.85 434.31 765.98 433.39 C 729.86 430.85 693.60 434.09 657.89 439.55 C 639.97 441.90 622.37 446.12 604.69 449.79 C 560.65 459.60 517.35 472.99 472.59 479.37 C 448.95 483.19 424.94 484.67 401.02 483.55 C 378.81 482.79 356.87 478.33 335.73 471.59 C 345.21 472.32 354.58 474.17 364.09 474.57 C 418.72 479.26 473.39 469.17 525.80 454.41 C 579.58 439.03 632.64 420.16 688.14 411.80 Z" />
<path fill="#fed11f" opacity="1.00" d=" M 471.83 531.41 C 479.30 531.41 486.77 531.62 494.24 531.43 C 500.78 550.79 508.18 569.88 514.05 589.47 C 520.57 570.03 527.58 550.78 534.70 531.56 C 542.08 531.49 549.45 531.34 556.83 531.65 C 546.70 556.81 537.20 582.23 527.44 607.53 C 518.62 607.52 509.80 607.53 500.98 607.49 C 491.42 582.07 481.49 556.79 471.83 531.41 Z" />
<path fill="#fed11f" opacity="1.00" d=" M 564.54 531.54 C 583.46 531.40 602.38 531.38 621.30 531.56 C 621.20 536.77 621.24 541.99 621.21 547.21 C 609.16 547.34 597.11 547.34 585.06 547.22 C 584.58 552.00 585.25 556.78 585.21 561.57 C 596.37 561.64 607.54 561.41 618.70 561.69 C 618.80 566.67 618.74 571.66 618.75 576.64 C 607.45 576.80 596.15 576.72 584.86 576.74 C 584.81 581.66 584.92 586.58 584.78 591.50 C 597.33 592.32 609.94 591.45 622.51 592.16 C 622.46 597.27 622.49 602.38 622.57 607.50 C 603.20 607.63 583.83 607.63 564.46 607.50 C 564.39 582.18 564.64 556.86 564.54 531.54 Z" />
<path fill="#fed11f" opacity="1.00" d=" M 633.41 531.38 C 641.16 531.66 648.93 531.26 656.68 531.51 C 668.12 547.96 678.94 564.86 690.09 581.52 C 690.51 564.87 690.07 548.20 690.42 531.54 C 697.13 531.44 703.85 531.37 710.58 531.37 C 710.44 556.74 710.60 582.12 710.45 607.49 C 702.79 607.58 695.13 607.54 687.48 607.48 C 677.27 593.20 668.01 578.25 658.18 563.71 C 656.44 561.28 654.98 558.67 653.73 555.97 C 652.71 573.12 653.56 590.34 653.32 607.52 C 646.66 607.57 640.01 607.58 633.36 607.49 C 633.36 582.12 633.30 556.75 633.41 531.38 Z" />
<path fill="#fed11f" opacity="1.00" d=" M 719.13 531.49 C 741.32 531.49 763.50 531.44 785.69 531.50 C 785.78 536.84 785.73 542.18 785.77 547.52 C 778.07 547.55 770.38 547.58 762.69 547.58 C 762.49 567.55 762.42 587.51 762.52 607.48 C 755.61 607.45 748.70 607.73 741.80 607.41 C 742.35 587.49 742.33 567.57 742.22 547.65 C 734.41 547.41 726.59 547.91 718.79 547.36 C 718.95 542.07 718.48 536.75 719.13 531.49 Z" />
<path fill="#fed11f" opacity="1.00" d=" M 809.83 531.41 C 818.97 531.56 828.11 531.51 837.26 531.37 C 847.01 556.83 857.25 582.11 866.97 607.60 C 859.53 607.51 852.10 607.66 844.67 607.51 C 842.57 602.54 840.97 597.38 839.13 592.31 C 828.56 592.22 817.98 592.25 807.41 592.25 C 805.60 597.40 803.56 602.46 801.65 607.57 C 794.19 607.43 786.73 607.69 779.28 607.42 C 789.55 582.12 799.50 556.69 809.83 531.41 M 823.11 546.48 C 819.95 556.95 815.65 567.08 812.29 577.51 C 819.48 577.78 826.69 577.82 833.89 577.55 C 830.88 567.01 826.92 556.75 823.11 546.48 Z" />
</g>
</svg>
